<?xml version="1.0" encoding="utf-8"?>
<!-- Generator: Adobe Illustrator 24.1.1, SVG Export Plug-In . SVG Version: 6.00 Build 0)  -->
<svg version="1.1" id="Capa_1" xmlns="http://www.w3.org/2000/svg" xmlns:xlink="http://www.w3.org/1999/xlink" x="0px" y="0px"
	 viewBox="0 0 1038 389" style="enable-background:new 0 0 1038 389;" xml:space="preserve">
<style type="text/css">
	.st0{fill:#230F59;}
</style>
<g>
	<g>
		<defs>
			<path id="SVGID_1_" d="M17.3-0.4c-9.8,0-17.8,8-17.8,17.8v280.9c0,9.8,8,17.8,17.8,17.8h355.5c0,0,104.2,56.7,118,64.2
				c13.8,7.5,16.8,8.5,22.2,8.5c4.6,0,10.7-3.5,10.7-11v-55.6h-21.4v39.7l-123.7-67.2H21V21h481.3v61.7h21.4V17.4
				c0-9.8-8-17.8-17.8-17.8H17.3z"/>
		</defs>
		<use xlink:href="#SVGID_1_"  style="overflow:visible;fill:#01D676;"/>
		<clipPath id="SVGID_2_">
			<use xlink:href="#SVGID_1_"  style="overflow:visible;"/>
		</clipPath>
	</g>
	<g>
		<path class="st0" d="M1027,102.9c0.7-0.9,1.1-2.1,1.1-3.6c0-1.6-0.6-3-1.8-4c-1.2-1-2.7-1.6-4.5-1.6h-8.8v17.6h4.3v-6.1l2.3-0.2
			l4.7,6.3h5l-4.7-6.7C1025.6,104.2,1026.4,103.6,1027,102.9 M1017.3,97.7h3.7c0.9,0,1.5,0.2,1.9,0.5c0.4,0.3,0.5,0.7,0.5,1.3
			c0,0.7-0.2,1.1-0.5,1.4c-0.4,0.3-1.1,0.5-2,0.5h-3.6V97.7z"/>
		<path class="st0" d="M1032.8,90.3c-3.4-3.4-7.7-5.2-12.6-5.2c-4.9,0-9.2,1.7-12.6,5.2c-3.4,3.4-5.2,7.7-5.2,12.6
			c0,4.9,1.7,9.2,5.2,12.6c3.4,3.4,7.7,5.2,12.6,5.2c5,0,9.2-1.7,12.6-5.2c3.4-3.4,5.2-7.7,5.2-12.6
			C1038,97.9,1036.3,93.7,1032.8,90.3 M1020.2,116.2c-3.7,0-6.9-1.3-9.4-3.9c-2.6-2.6-3.9-5.7-3.9-9.4c0-3.7,1.3-6.9,3.9-9.5
			c2.6-2.5,5.7-3.8,9.4-3.8c3.7,0,6.9,1.3,9.5,3.8c2.5,2.6,3.8,5.7,3.8,9.5c0,3.7-1.3,6.9-3.8,9.4
			C1027.1,114.9,1023.9,116.2,1020.2,116.2"/>
		<path class="st0" d="M186.6,222.3c-3.1,2.7-7,4.7-11.6,6.1c-4.6,1.4-9.4,2.1-14.3,2.1c-11.9,0-21.1-3.2-27.7-9.6
			c-6.5-6.4-9.8-15.5-9.8-27.4V85.1h21.4V111h33.9v17.6h-33.9v64c0,6.4,1.6,11.3,4.8,14.7c3.2,3.4,7.8,5.1,13.7,5.1
			c6.5,0,12.1-1.8,16.7-5.6L186.6,222.3z"/>
		<path class="st0" d="M565.5,109.8c11.5,0,21.7,2.5,30.8,7.6c9.1,5.1,16.2,12.1,21.3,21.2c5.1,9.1,7.7,19.6,7.7,31.4
			c0,11.9-2.6,22.4-7.7,31.6c-5.1,9.1-12.2,16.2-21.3,21.3c-9.1,5.1-19.3,7.6-30.8,7.6c-23,0-29.7-3.8-42.2-8.7v72.8h-20.5V109.8
			H565.5z M563.7,211.8c7.6,0,14.4-1.7,20.4-5.2c6-3.5,10.8-8.4,14.3-14.7c3.5-6.3,5.2-13.6,5.2-21.7c0-8.2-1.7-15.4-5.2-21.7
			c-3.5-6.3-8.3-11.2-14.3-14.6c-6-3.4-12.8-5.1-20.4-5.1H524v71.5C532.4,207.4,545.1,211.8,563.7,211.8"/>
		<rect x="332" y="65" class="st0" width="21.4" height="165.5"/>
		<polygon class="st0" points="425.3,175.4 400.7,198.2 400.7,230.5 379.3,230.5 379.3,65 400.7,65 400.7,171.2 465.2,112.3 
			491.1,112.3 441.3,161.1 496,230.5 469.7,230.5 		"/>
		<path class="st0" d="M751.4,111v119.6h-20.3v-19.2c-4.3,6.1-10,10.8-17.1,14.2c-7.1,3.3-14.8,5-23.1,5c-15.8,0-28.2-4.4-37.2-13
			c-9.1-8.7-13.6-21.5-13.6-38.5v-68h21.4v65.6c0,11.5,2.8,20.1,8.3,26c5.5,5.9,13.4,8.8,23.6,8.8c11.3,0,20.2-3.4,26.8-10.3
			c6.5-6.8,9.8-16.5,9.8-29V111H751.4z"/>
		<path class="st0" d="M784.2,226.6c-8.9-2.6-15.9-5.9-21-9.9l8.9-17c5.2,3.7,11.5,6.7,19,8.9c7.4,2.2,14.9,3.3,22.5,3.3
			c18.7,0,28.1-5.4,28.1-16.1c0-3.6-1.3-6.4-3.8-8.5c-2.5-2.1-5.7-3.6-9.5-4.6c-3.8-1-9.2-2-16.2-3.2c-9.5-1.5-17.3-3.2-23.3-5.1
			c-6-1.9-11.2-5.2-15.5-9.8c-4.3-4.6-6.5-11.1-6.5-19.4c0-10.7,4.5-19.3,13.4-25.8c8.9-6.5,20.9-9.7,35.9-9.7
			c7.9,0,15.8,1,23.6,2.9c7.9,1.9,14.3,4.5,19.4,7.8l-9.1,17c-9.7-6.2-21-9.4-34.1-9.4c-9.1,0-16,1.5-20.7,4.5
			c-4.8,3-7.1,6.9-7.1,11.8c0,3.9,1.3,6.9,4,9.1c2.7,2.2,6,3.9,9.9,4.9c3.9,1,9.5,2.2,16.6,3.6c9.5,1.6,17.2,3.4,23.1,5.2
			c5.9,1.9,10.9,5,15.1,9.5c4.2,4.5,6.2,10.7,6.2,18.7c0,10.7-4.6,19.2-13.7,25.5c-9.1,6.3-21.6,9.5-37.4,9.5
			C802.4,230.5,793.1,229.2,784.2,226.6"/>
		<path class="st0" d="M973.6,124.2c8.8,8.7,13.3,21.4,13.3,38.2v68h-21.4v-65.6c0-11.4-2.8-20.1-8.3-25.9
			c-5.5-5.8-13.4-8.7-23.6-8.7c-11.6,0-20.7,3.4-27.4,10.1c-6.7,6.8-10,16.5-10,29.1v60.9h-21.4V65h21.4v64
			c4.5-5.6,10.3-10,17.5-13.2c7.2-3.1,15.3-4.7,24.2-4.7C952.8,111.2,964.7,115.5,973.6,124.2"/>
		<path class="st0" d="M306.1,109.8v120.7h-20.5v-13.4c-5,4.9-19.1,13.4-42.2,13.4c-11.5,0-21.7-2.5-30.8-7.6
			c-9.1-5.1-16.2-12.2-21.3-21.3c-5.1-9.1-7.7-19.7-7.7-31.6c0-11.9,2.6-22.4,7.7-31.4c5.1-9.1,12.2-16.1,21.3-21.2
			c9.1-5,19.3-7.6,30.8-7.6H306.1z M284.9,195.4v-66.8h-39.7c-7.6,0-14.4,1.7-20.4,5.1c-6,3.4-10.8,8.3-14.3,14.6
			c-3.5,6.3-5.2,13.6-5.2,21.7c0,8.2,1.7,15.4,5.2,21.7c3.5,6.3,8.3,11.2,14.3,14.7c6,3.5,12.8,5.2,20.4,5.2
			C260.4,211.8,284.9,203.6,284.9,195.4"/>
	</g>
</g>
</svg>
